<svg width="135" height="48" viewBox="0 0 135 48" fill="none" xmlns="http://www.w3.org/2000/svg">
<path d="M47.7177 9.76765C47.7177 9.59498 47.7177 9.42242 47.7177 9.24976C47.5779 8.62183 47.397 8.00383 47.1758 7.39981C46.3272 5.21927 44.8407 3.34617 42.911 2.02579C40.9813 0.705415 38.6986 -0.000684311 36.3613 4.97648e-07H11.603C8.52993 -6.43736e-06 5.58246 1.22058 3.40716 3.39399C1.23187 5.56739 0.00652456 8.51598 0 11.5929V36.4071C-3.44628e-06 37.9316 0.300105 39.441 0.883516 40.8492C1.46693 42.2573 2.32217 43.5364 3.39994 44.6132C4.47771 45.69 5.75675 46.5435 7.16436 47.1247C8.57197 47.7058 10.0804 48.0032 11.603 48H36.312C37.8334 48.0032 39.3402 47.7055 40.7464 47.1241C42.1526 46.5426 43.4308 45.6889 44.5066 44.6117C45.5824 43.5345 46.4351 42.2554 47.0158 40.8474C47.5965 39.4394 47.8936 37.9304 47.8903 36.4071V11.5929C47.8706 10.9815 47.8128 10.3719 47.7177 9.76765Z" fill="url(#paint0_linear_2452_12520)"/>
<path d="M47.7177 9.76726L44.9836 18.2769H23.7479C22.743 18.2769 21.7483 18.0786 20.8201 17.6928C19.892 17.307 19.0486 16.7413 18.3392 16.0286C17.6297 15.316 17.0681 14.4703 16.6858 13.5397C16.3035 12.6092 16.1082 11.612 16.1114 10.6058V7.39941H47.0778C47.299 8.00344 47.4799 8.62143 47.6197 9.24937C47.6443 9.42203 47.6931 9.59459 47.7177 9.76726Z" fill="#F7F7FF"/>
<path d="M38.0116 20.8177L37.667 21.8044L34.5137 31.1282H20.5951C20.3036 31.1269 20.0185 31.2162 19.7802 31.3841C19.5418 31.5521 19.3619 31.7904 19.2647 32.0655L16.284 40.2792L6.0601 40.5752H5.22229L9.58274 28.5381C10.4021 26.2714 11.8985 24.3122 13.8686 22.9266C15.8387 21.5409 18.1875 20.7959 20.5951 20.793L38.0116 20.8177Z" fill="#F7F7FF"/>
<path style="mix-blend-mode:multiply" d="M37.667 21.8047L34.5137 31.1285H20.5951C20.3036 31.1272 20.0185 31.2165 19.7802 31.3844C19.5418 31.5524 19.3619 31.7907 19.2647 32.0658L16.284 40.2795L6.06009 40.5755L10.0759 29.5252C10.9024 27.265 12.4011 25.3131 14.3702 23.9326C16.3393 22.552 18.6839 21.8093 21.0877 21.8047H37.667Z" fill="url(#paint1_linear_2452_12520)"/>
<path style="mix-blend-mode:multiply" d="M47.6197 9.24949L44.9589 17.1919H24.7337C23.7287 17.1919 22.7334 16.9933 21.8052 16.6074C20.8771 16.2216 20.0344 15.6562 19.3249 14.9436C18.6154 14.2309 18.0533 13.385 17.6709 12.4544C17.2886 11.5238 17.0933 10.527 17.0966 9.52078V7.30078H47.0778C47.3032 7.937 47.4842 8.58819 47.6197 9.24949Z" fill="url(#paint2_linear_2452_12520)"/>
<path d="M28.1821 19.0424L28.4041 13.7886C28.4092 13.6822 28.4458 13.5796 28.5087 13.4938C28.5717 13.408 28.6579 13.3427 28.7577 13.3059C28.8575 13.2691 28.9663 13.2625 29.0699 13.2869C29.1734 13.3114 29.267 13.3656 29.3399 13.4432L31.6314 15.9098L34.4395 18.919C34.5419 19.0248 34.5989 19.1664 34.5989 19.3137C34.5989 19.461 34.5419 19.6027 34.4395 19.7085L31.3601 22.4464L28.8966 24.7158C28.8166 24.7913 28.7155 24.8406 28.6068 24.8573C28.498 24.8739 28.3869 24.857 28.288 24.8088C28.1891 24.7606 28.1069 24.6834 28.0528 24.5875C27.9988 24.4916 27.9755 24.3813 27.9855 24.2716L28.1821 19.0424Z" fill="url(#paint3_linear_2452_12520)"/>
<path d="M66.3666 20.991H62.77V2.95996H75.3834V6.58579H66.3666V10.1872H71.7862V13.7884H66.3666V20.991Z" fill="#231D56"/>
<path d="M81.1476 3.87287C81.1545 4.17784 81.0955 4.48068 80.975 4.76081C80.8543 5.02656 80.6876 5.26886 80.4824 5.47622C80.2679 5.68414 80.0174 5.85118 79.7432 5.96942C79.4653 6.09864 79.1631 6.16615 78.8567 6.16694C78.5431 6.15987 78.2334 6.09271 77.9449 5.96942C77.6746 5.85739 77.4316 5.68938 77.231 5.47622C77.0181 5.27533 76.8497 5.03144 76.7378 4.76081C76.6088 4.48257 76.5419 4.17965 76.5411 3.87287C76.5419 3.56609 76.6088 3.26317 76.7378 2.98493C76.8497 2.71431 77.0181 2.47041 77.231 2.26952C77.4316 2.05637 77.6746 1.88835 77.9449 1.77632C78.2334 1.65304 78.5431 1.58617 78.8567 1.5791C79.1631 1.57989 79.4653 1.64711 79.7432 1.77632C80.0174 1.89457 80.2679 2.0616 80.4824 2.26952C80.6876 2.47689 80.8543 2.71918 80.975 2.98493C81.0955 3.26507 81.1545 3.56791 81.1476 3.87287ZM80.5564 20.9912H77.1077V7.52339H80.5564V20.9912Z" fill="#231D56"/>
<path d="M86.8631 20.9912H83.4385V7.52332H84.2516L85.3847 8.8307C85.9376 8.33937 86.571 7.94726 87.257 7.67146C87.9572 7.40539 88.701 7.2715 89.4499 7.27672C90.2541 7.26777 91.0512 7.42756 91.7901 7.74553C92.5004 8.04415 93.145 8.47974 93.687 9.02792C94.2323 9.58186 94.6671 10.2349 94.9681 10.9519C95.303 11.7298 95.4626 12.5719 95.436 13.4185V21.1143H92.012V13.4185C92.0226 13.0789 91.955 12.7413 91.8147 12.4318C91.687 12.1214 91.5033 11.8372 91.2728 11.5933C91.0341 11.3681 90.7591 11.1848 90.4597 11.0507C90.1421 10.9099 89.7971 10.8426 89.4499 10.8535C89.1031 10.8473 88.7585 10.9145 88.4395 11.0507C88.1294 11.1786 87.8458 11.3625 87.6022 11.5933C87.3718 11.8372 87.1881 12.1214 87.0604 12.4318C86.9315 12.7448 86.8644 13.08 86.8631 13.4185V20.9912Z" fill="#231D56"/>
<path d="M103.492 17.6855H103.886H104.28C104.598 17.7367 104.922 17.7367 105.241 17.6855C105.553 17.5947 105.851 17.4621 106.128 17.2911C106.399 17.1177 106.64 16.901 106.842 16.6497C107.058 16.4044 107.241 16.1303 107.384 15.8356L109.848 18.3022C109.547 18.7633 109.182 19.1787 108.763 19.5355C108.347 19.8899 107.893 20.196 107.409 20.4481C106.933 20.6986 106.428 20.8895 105.906 21.0157C105.365 21.1434 104.811 21.2095 104.255 21.2129C103.343 21.2175 102.439 21.0415 101.595 20.695C100.781 20.3377 100.038 19.8361 99.4024 19.2148C98.7715 18.5676 98.2696 17.806 97.9241 16.9704C97.571 16.0584 97.3955 15.0871 97.4068 14.1091C97.3958 13.115 97.5712 12.1276 97.9241 11.1983C98.2634 10.3595 98.7661 9.59676 99.4024 8.95396C100.034 8.33348 100.778 7.83931 101.595 7.49845C102.439 7.15193 103.343 6.97599 104.255 6.98056C104.811 6.98397 105.365 7.05006 105.906 7.17778C106.433 7.32344 106.945 7.52204 107.433 7.77004C107.914 8.02809 108.368 8.33382 108.788 8.68267C109.201 9.04534 109.566 9.45987 109.872 9.91597L103.492 17.6855ZM105.241 10.6311C105.085 10.6117 104.928 10.6117 104.773 10.6311H104.28C103.825 10.6246 103.373 10.7083 102.95 10.8777C102.549 11.0485 102.189 11.3006 101.891 11.6178C101.574 11.9549 101.324 12.348 101.151 12.777C100.976 13.2587 100.892 13.769 100.905 14.2816V14.7257V15.1942C100.905 15.3669 100.905 15.515 100.905 15.663C100.947 15.8085 101.005 15.9492 101.077 16.0825L105.241 10.6311Z" fill="#231D56"/>
<path d="M124.136 20.9908H119.948L117.263 16.8715L114.577 20.9908H110.39L115.317 14.0842L110.39 7.44922H114.577L117.263 11.3217L119.948 7.44922H124.136L119.209 14.0842L124.136 20.9908Z" fill="#231D56"/>
<path d="M132.389 20.9905C131.593 20.9873 130.807 20.8279 130.073 20.5217C129.355 20.2119 128.703 19.7682 128.151 19.2143C127.604 18.6661 127.162 18.0227 126.846 17.3153C126.526 16.5328 126.367 15.694 126.378 14.8487V10.8528H124.727V7.4242H126.378V2.04688H129.802V7.4242H135V10.8528H129.802V14.8487C129.805 15.195 129.872 15.5376 129.999 15.8598C130.124 16.1646 130.308 16.4416 130.541 16.674C130.783 16.9127 131.067 17.1049 131.379 17.2412C131.701 17.3682 132.043 17.435 132.389 17.4384H135V20.8671L132.389 20.9905Z" fill="#231D56"/>
<path d="M76.9351 44.2256C76.1243 44.9351 75.189 45.4873 74.1763 45.8537C73.1609 46.2369 72.0834 46.4292 70.9983 46.4209C70.166 46.4323 69.3364 46.3243 68.5348 46.1003C67.7602 45.8797 67.0153 45.5649 66.3172 45.163C65.6492 44.7578 65.0293 44.2779 64.4696 43.7324C63.9038 43.1753 63.4153 42.5448 63.0165 41.8578C62.6236 41.1577 62.3172 40.4122 62.1048 39.6378C61.8759 38.8356 61.7601 38.0054 61.7601 37.1712C61.7601 36.3369 61.8759 35.5068 62.1048 34.7046C62.3165 33.9378 62.623 33.2004 63.0165 32.5093C63.4153 31.8223 63.9038 31.1918 64.4696 30.6346C65.0293 30.0891 65.6492 29.6093 66.3172 29.2041C67.0153 28.8021 67.7602 28.4874 68.5348 28.2668C69.3364 28.0427 70.166 27.9348 70.9983 27.9461C72.0823 27.9501 73.1576 28.142 74.1763 28.5134C75.189 28.8798 76.1243 29.432 76.9351 30.1414L75.0875 33.2494C74.5544 32.7019 73.918 32.2659 73.2152 31.9667C72.5181 31.6536 71.7623 31.494 70.9983 31.4982C70.2444 31.4905 69.497 31.6416 68.8054 31.942C68.1336 32.2248 67.523 32.6352 67.0071 33.1506C66.4845 33.6657 66.0662 34.2771 65.7754 34.9512C65.4774 35.6443 65.3265 36.3919 65.3321 37.1465C65.3267 37.9091 65.4774 38.6647 65.7754 39.3665C66.0662 40.0406 66.4845 40.6519 67.0071 41.1671C67.523 41.6825 68.1336 42.0929 68.8054 42.3757C69.497 42.6761 70.2444 42.8275 70.9983 42.8198C71.4376 42.8194 71.8757 42.7696 72.304 42.6717C72.719 42.5606 73.123 42.4121 73.5111 42.2278V37.1465H76.9351V44.2256Z" fill="#231D56"/>
<path d="M82.7492 46.0516H79.3246V27.4043H82.7492V46.0516Z" fill="#231D56"/>
<path d="M98.1955 39.2683C98.2091 40.2169 98.0239 41.1578 97.653 42.0308C97.3193 42.8667 96.8259 43.6293 96.1999 44.2755C95.585 44.8997 94.8576 45.4018 94.0564 45.7554C93.2146 46.1123 92.3104 46.297 91.3962 46.2983C90.49 46.2971 89.5933 46.1123 88.7601 45.7554C87.9513 45.4024 87.2156 44.9004 86.5919 44.2755C85.966 43.6293 85.4726 42.8667 85.1388 42.0308C84.7679 41.1578 84.5834 40.2169 84.5969 39.2683C84.5837 38.3037 84.7681 37.3466 85.1388 36.4563C85.4667 35.6174 85.9608 34.854 86.5919 34.2119C87.2156 33.587 87.9513 33.0851 88.7601 32.732C89.5948 32.383 90.4917 32.2066 91.3962 32.2138C92.3071 32.1988 93.2113 32.3667 94.0564 32.7073C94.8602 33.034 95.5896 33.5206 96.1999 34.1378C96.8304 34.7709 97.3246 35.5264 97.653 36.3578C98.0277 37.2816 98.2125 38.2714 98.1955 39.2683ZM94.7709 39.2683C94.7836 38.7557 94.6998 38.2453 94.5243 37.7637C94.3426 37.347 94.0933 36.9636 93.7858 36.6291C93.4827 36.3062 93.1123 36.0535 92.7014 35.889C92.2877 35.7177 91.8438 35.6338 91.3962 35.6424C90.9489 35.6359 90.5047 35.7197 90.0905 35.889C89.6868 36.0538 89.3245 36.3067 89.0308 36.6291C88.7148 36.9522 88.4718 37.3389 88.3169 37.7637C88.1215 38.2404 88.0289 38.7532 88.0456 39.2683C88.0356 39.7588 88.1281 40.2463 88.3169 40.6991C88.4718 41.1238 88.7148 41.5105 89.0308 41.8336C89.3236 42.1632 89.6857 42.4243 90.0905 42.5984C90.4994 42.7872 90.9461 42.88 91.3962 42.8697C91.8438 42.8783 92.2877 42.7941 92.7014 42.6228C93.1123 42.4584 93.4827 42.206 93.7858 41.883C94.0933 41.5485 94.3426 41.1651 94.5243 40.7485C94.6979 40.2748 94.7817 39.7726 94.7709 39.2683Z" fill="#231D56"/>
<path d="M113.395 39.2685C113.407 40.2465 113.231 41.2178 112.878 42.1298C112.531 42.9515 112.039 43.7036 111.424 44.3498C110.801 44.9622 110.065 45.4479 109.257 45.7804C108.414 46.1314 107.509 46.3078 106.596 46.2985C105.692 46.3031 104.795 46.1268 103.96 45.7804C103.15 45.4299 102.414 44.9276 101.792 44.3005C101.162 43.6674 100.667 42.9119 100.339 42.0805C99.9658 41.1907 99.7814 40.2332 99.7967 39.2685V27.4043H103.221V33.6449C103.402 33.4013 103.618 33.1853 103.861 33.0035C104.136 32.8312 104.424 32.6826 104.724 32.5594C105.028 32.4431 105.341 32.3524 105.66 32.2881H106.596C107.509 32.2789 108.414 32.455 109.257 32.806C110.072 33.1473 110.809 33.6511 111.424 34.2862C112.034 34.9363 112.526 35.6872 112.878 36.5059C113.222 37.3862 113.397 38.3233 113.395 39.2685ZM109.995 39.2685C109.996 38.7708 109.904 38.2774 109.725 37.8133C109.552 37.3919 109.301 37.0071 108.986 36.6787C108.684 36.3481 108.314 36.087 107.902 35.914C107.49 35.7342 107.045 35.6418 106.596 35.6427C106.144 35.6409 105.697 35.7421 105.29 35.9386C104.879 36.1361 104.511 36.4129 104.207 36.7528C103.903 37.0952 103.662 37.4873 103.492 37.912C103.325 38.3446 103.241 38.8048 103.245 39.2685C103.239 39.7565 103.323 40.2416 103.492 40.6993C103.656 41.1195 103.899 41.5045 104.207 41.8339C104.513 42.159 104.881 42.4192 105.29 42.5986C105.699 42.7875 106.146 42.8802 106.596 42.8699C107.046 42.8829 107.494 42.79 107.902 42.5986C108.314 42.4256 108.684 42.1645 108.986 41.8339C109.301 41.5055 109.552 41.1207 109.725 40.6993C109.902 40.2431 109.993 39.758 109.995 39.2685Z" fill="#231D56"/>
<path d="M128.176 46.0515H127.338L126.033 44.2015C125.704 44.5004 125.358 44.7806 124.998 45.0404C124.643 45.2923 124.264 45.5072 123.865 45.6817C123.473 45.8769 123.06 46.0257 122.633 46.1255C122.225 46.2434 121.802 46.3017 121.377 46.2984C120.47 46.2951 119.57 46.1365 118.716 45.8296C117.918 45.5146 117.19 45.0454 116.573 44.4484C115.937 43.8146 115.435 43.0597 115.095 42.2284C114.735 41.2839 114.56 40.279 114.577 39.2683C114.566 38.2903 114.742 37.3193 115.095 36.4073C115.44 35.5717 115.942 34.8098 116.573 34.1626C117.187 33.543 117.914 33.0489 118.716 32.7074C119.565 32.3804 120.467 32.213 121.377 32.2139C121.808 32.2144 122.238 32.2642 122.658 32.362C123.08 32.477 123.491 32.6253 123.89 32.8058C124.286 33.0031 124.665 33.2343 125.023 33.4966C125.376 33.7466 125.713 34.0184 126.033 34.3104L127.338 32.7321H128.176V46.0515ZM124.751 39.2683C124.747 38.8031 124.656 38.343 124.481 37.9119C124.311 37.4871 124.069 37.095 123.766 36.7526C123.462 36.4127 123.094 36.1359 122.683 35.9385C122.275 35.742 121.829 35.6408 121.377 35.6425C120.924 35.6399 120.474 35.7149 120.046 35.8644C119.648 36.0267 119.287 36.2704 118.987 36.5798C118.669 36.9009 118.425 37.2882 118.273 37.7143C118.087 38.211 117.995 38.738 118.002 39.2683C117.997 39.7905 118.089 40.309 118.273 40.7976C118.431 41.228 118.674 41.6224 118.987 41.9571C119.288 42.2593 119.649 42.4945 120.046 42.6475C120.474 42.797 120.924 42.8723 121.377 42.8698C121.829 42.8715 122.275 42.7703 122.683 42.5738C123.094 42.3763 123.462 42.0995 123.766 41.7596C124.075 41.4211 124.317 41.028 124.481 40.6004C124.655 40.1778 124.747 39.7256 124.751 39.2683Z" fill="#231D56"/>
<path d="M134.162 46.0516H130.763V27.4043H134.162V46.0516Z" fill="#231D56"/>
<defs>
<linearGradient id="paint0_linear_2452_12520" x1="-0.0985398" y1="24" x2="47.8411" y2="24" gradientUnits="userSpaceOnUse">
<stop stop-color="#16C37B"/>
<stop offset="1" stop-color="#17BDA1"/>
</linearGradient>
<linearGradient id="paint1_linear_2452_12520" x1="27.0246" y1="39.8355" x2="15.3507" y2="20.3376" gradientUnits="userSpaceOnUse">
<stop offset="0.34" stop-color="white" stop-opacity="0"/>
<stop offset="1" stop-opacity="0.2"/>
</linearGradient>
<linearGradient id="paint2_linear_2452_12520" x1="38.7756" y1="8.55875" x2="18.4666" y2="18.356" gradientUnits="userSpaceOnUse">
<stop offset="0.34" stop-color="white" stop-opacity="0"/>
<stop offset="0.96" stop-opacity="0.2"/>
</linearGradient>
<linearGradient id="paint3_linear_2452_12520" x1="27.9362" y1="19.0672" x2="34.5872" y2="19.0672" gradientUnits="userSpaceOnUse">
<stop stop-color="#16C37B"/>
<stop offset="1" stop-color="#17BDA1"/>
</linearGradient>
</defs>
</svg>
