<svg width="192" height="80" viewBox="0 0 192 80" fill="none" xmlns="http://www.w3.org/2000/svg">
<rect width="192" height="80" fill="white"/>
<path d="M27.3 67C20.4192 67 15.0451 65.225 11.1777 61.675C7.36059 58.125 5.32646 53.175 5.07534 46.825C5.02511 45.375 5 43.05 5 39.85C5 36.65 5.02511 34.325 5.07534 32.875C5.32646 26.675 7.3857 21.825 11.2531 18.325C15.1706 14.775 20.5196 13 27.3 13C31.9208 13 35.8886 13.775 39.2034 15.325C42.5183 16.875 45.0296 18.825 46.7372 21.175C48.4449 23.475 49.3489 25.75 49.4494 28V28.15C49.4494 28.55 49.2987 28.9 48.9974 29.2C48.696 29.45 48.3193 29.575 47.8673 29.575H40.1075C39.6052 29.575 39.2285 29.5 38.9774 29.35C38.7263 29.15 38.5003 28.825 38.2994 28.375C37.5962 26.525 36.3657 24.95 34.6078 23.65C32.8499 22.3 30.414 21.625 27.3 21.625C23.7843 21.625 21.0219 22.575 19.0129 24.475C17.0541 26.375 15.9993 29.3 15.8487 33.25C15.7984 34.7 15.7733 36.9 15.7733 39.85C15.7733 42.75 15.7984 44.95 15.8487 46.45C16.15 54.4 20.0174 58.375 27.4507 58.375C31.0167 58.375 33.8796 57.425 36.0392 55.525C38.1989 53.575 39.2788 50.7 39.2788 46.9V44.575H30.0875C29.5351 44.575 29.083 44.4 28.7315 44.05C28.4301 43.7 28.2794 43.25 28.2794 42.7V38.725C28.2794 38.175 28.4301 37.725 28.7315 37.375C29.083 37.025 29.5351 36.85 30.0875 36.85H48.0933C48.6458 36.85 49.0727 37.025 49.3741 37.375C49.7256 37.725 49.9014 38.175 49.9014 38.725V46.6C49.9014 50.75 48.9723 54.375 47.1139 57.475C45.3058 60.525 42.6941 62.875 39.2788 64.525C35.8634 66.175 31.8705 67 27.3 67Z" fill="black"/>
<path d="M61.3675 66.25C60.8653 66.25 60.4383 66.075 60.0868 65.725C59.7352 65.375 59.5594 64.95 59.5594 64.45V15.625C59.5594 15.075 59.7101 14.625 60.0114 14.275C60.363 13.925 60.815 13.75 61.3675 13.75H67.1685C67.7712 13.75 68.2233 13.875 68.5246 14.125C68.826 14.325 69.1022 14.6 69.3533 14.95L91.0507 48.55V15.625C91.0507 15.075 91.2013 14.625 91.5027 14.275C91.8543 13.925 92.3063 13.75 92.8588 13.75H99.1872C99.7396 13.75 100.192 13.925 100.543 14.275C100.895 14.625 101.071 15.075 101.071 15.625V64.375C101.071 64.925 100.895 65.375 100.543 65.725C100.192 66.075 99.7648 66.25 99.2625 66.25H93.3861C92.5323 66.25 91.804 65.85 91.2013 65.05L69.5793 32.2V64.45C69.5793 65 69.4036 65.45 69.052 65.8C68.7004 66.1 68.2484 66.25 67.6959 66.25H61.3675Z" fill="black"/>
<path d="M114.634 66.25C114.132 66.25 113.705 66.075 113.353 65.725C113.001 65.375 112.826 64.95 112.826 64.45V15.55C112.826 15 113.001 14.575 113.353 14.275C113.705 13.925 114.132 13.75 114.634 13.75H121.716C122.268 13.75 122.695 13.925 122.996 14.275C123.348 14.575 123.524 15 123.524 15.55V64.45C123.524 64.95 123.348 65.375 122.996 65.725C122.695 66.075 122.268 66.25 121.716 66.25H114.634Z" fill="black"/>
<path d="M144.003 66.25C143.249 66.25 142.647 66.05 142.195 65.65C141.743 65.25 141.466 64.7 141.366 64L132.401 15.925L132.325 15.325C132.325 14.875 132.476 14.5 132.777 14.2C133.129 13.9 133.506 13.75 133.907 13.75H140.537C141.793 13.75 142.496 14.25 142.647 15.25L148.9 49.225L155.68 27.25C156.182 26 157.011 25.375 158.166 25.375H162.234C163.49 25.375 164.294 26 164.645 27.25L171.501 49.15L177.754 15.25C177.855 14.7 178.055 14.325 178.357 14.125C178.708 13.875 179.211 13.75 179.864 13.75H186.493C186.895 13.75 187.247 13.9 187.548 14.2C187.849 14.5 188 14.875 188 15.325C188 15.575 187.975 15.775 187.925 15.925L178.959 64C178.708 65.5 177.829 66.25 176.323 66.25H171.275C170.572 66.25 169.994 66.075 169.542 65.725C169.09 65.375 168.789 64.925 168.638 64.375L160.2 39.325L151.762 64.375C151.26 65.625 150.356 66.25 149.05 66.25H144.003Z" fill="black"/>
</svg>
